# xmcd
#
# Track frame offsets: 
#        150
#        20816
#        44264
#        71278
#        87709
#        108111
#        132541
#        150719
#        178332
#        200029
#        237387
#        251637
#        271856
#        291010
#        317553
#        341180
#
# Disc length: 4772 seconds
#
# Revision: 0
# Processed by: cddbd v1.5.2PL0 Copyright (c) Steve Scherf et al.
# Submitted via: ExactAudioCopy v0.95a5
#
DISCID=f512a210
DTITLE=Various Artist - Akella Presents - Blues-Rock - vol.21  CD2
DYEAR=2010
DGENRE=Blues-Rock
TTITLE0=We Don't Dance To Your Song - DAVE EVANS
TTITLE1=Sugar Room - BLINDSTONE
TTITLE2=What's It All About - AYNSLEY LISTER
TTITLE3=Trouble Maker - SIDEBURN
TTITLE4=It's Nothin' News - ERIC SARDINAS and BIG MOTOR
TTITLE5=Big Bad Rhythm - JAY JESSE JOHNSON
TTITLE6=Can't Get Through - BONAFIDE
TTITLE7=Ain't nothing left - BIG GEORGE and The BUSINESS
TTITLE8=Forever A Stain - GENOCIDE
TTITLE9=Drivin' Down - MARK REECE
TTITLE10=Leave Me Alone - SMALL JACKETS
TTITLE11=I Should Know Better - MARK SELBY
TTITLE12=Innocence - SOL FLYA
TTITLE13=Holy Mother - HANGMAN
TTITLE14=Blood from a Stone - RICK DERRINGER
TTITLE15=One Bullet - THUNDER
EXTD=
EXTT0=
EXTT1=
EXTT2=
EXTT3=
EXTT4=
EXTT5=
EXTT6=
EXTT7=
EXTT8=
EXTT9=
EXTT10=
EXTT11=
EXTT12=
EXTT13=
EXTT14=
EXTT15=
PLAYORDER=
